<?xml version="1.0" encoding="UTF-8" standalone="no"?>
<svg
   xmlns:dc="http://purl.org/dc/elements/1.1/"
   xmlns:cc="http://creativecommons.org/ns#"
   xmlns:rdf="http://www.w3.org/1999/02/22-rdf-syntax-ns#"
   xmlns:svg="http://www.w3.org/2000/svg"
   xmlns="http://www.w3.org/2000/svg"
   xml:space="preserve"
   style="enable-background:new 0 0 24 24;"
   viewBox="0 0 24 24"
   y="0px"
   x="0px"
   id="Layer_1"
   version="1.1"><metadata
     id="metadata4666"><rdf:RDF><cc:Work
         rdf:about=""><dc:format>image/svg+xml</dc:format><dc:type
           rdf:resource="http://purl.org/dc/dcmitype/StillImage" /><dc:title></dc:title></cc:Work></rdf:RDF></metadata><defs
     id="defs4664" /><g
     style="stroke:#ffffff;fill:#ffffff"
     id="g4659"><path
       style="stroke:#ffffff;fill:#ffffff"
       id="path4657"
       d="M21.4,5.8c0.5,0,0.9,0.2,1.2,0.5C23,6.6,23.1,7,23.1,7.5v12.4c0,0.5-0.2,0.9-0.5,1.2c-0.3,0.3-0.7,0.5-1.2,0.5H2.2   c-0.5,0-0.9-0.2-1.2-0.5c-0.3-0.3-0.5-0.7-0.5-1.2V7.5C0.5,7,0.7,6.6,1,6.3C1.3,6,1.7,5.8,2.2,5.8h5.1V4.1c0-0.5,0.2-0.9,0.5-1.2   C8.1,2.6,8.5,2.4,9,2.4h5.7c0.5,0,0.9,0.2,1.2,0.5c0.3,0.3,0.5,0.7,0.5,1.2v1.7H21.4z M2.2,6.9C2,6.9,1.9,7,1.8,7.1   C1.7,7.2,1.6,7.3,1.6,7.5V16h2.3v-0.6c0-0.2,0.1-0.3,0.2-0.4c0.1-0.1,0.2-0.2,0.4-0.2h2.3c0.2,0,0.3,0.1,0.4,0.2   c0.1,0.1,0.2,0.2,0.2,0.4V16h9.1v-0.6c0-0.2,0.1-0.3,0.2-0.4c0.1-0.1,0.2-0.2,0.4-0.2h2.3c0.2,0,0.3,0.1,0.4,0.2   c0.1,0.1,0.2,0.2,0.2,0.4V16H22V7.5c0-0.2-0.1-0.3-0.2-0.4c-0.1-0.1-0.2-0.2-0.4-0.2H2.2z M21.4,20.5c0.2,0,0.3-0.1,0.4-0.2   c0.1-0.1,0.2-0.2,0.2-0.4v-2.8h-2.3v0.6c0,0.2-0.1,0.3-0.2,0.4c-0.1,0.1-0.2,0.2-0.4,0.2h-2.3c-0.2,0-0.3-0.1-0.4-0.2   c-0.1-0.1-0.2-0.2-0.2-0.4v-0.6H7.3v0.6c0,0.2-0.1,0.3-0.2,0.4c-0.1,0.1-0.2,0.2-0.4,0.2H4.5c-0.2,0-0.3-0.1-0.4-0.2   c-0.1-0.1-0.2-0.2-0.2-0.4v-0.6H1.6v2.8c0,0.2,0.1,0.3,0.2,0.4c0.1,0.1,0.2,0.2,0.4,0.2H21.4z M6.2,16H5v1.1h1.1V16z M8.4,4.1v1.7   h6.8V4.1c0-0.2-0.1-0.3-0.2-0.4c-0.1-0.1-0.2-0.2-0.4-0.2H9c-0.2,0-0.3,0.1-0.4,0.2C8.5,3.8,8.4,3.9,8.4,4.1z M18.6,16h-1.1v1.1   h1.1V16z" /></g></svg>