<?xml version="1.0" encoding="UTF-8" standalone="no"?>
<!-- Generator: Adobe Illustrator 22.0.1, SVG Export Plug-In . SVG Version: 6.00 Build 0)  -->

<svg
   xmlns:dc="http://purl.org/dc/elements/1.1/"
   xmlns:cc="http://creativecommons.org/ns#"
   xmlns:rdf="http://www.w3.org/1999/02/22-rdf-syntax-ns#"
   xmlns:svg="http://www.w3.org/2000/svg"
   xmlns="http://www.w3.org/2000/svg"
   xmlns:sodipodi="http://sodipodi.sourceforge.net/DTD/sodipodi-0.dtd"
   xmlns:inkscape="http://www.inkscape.org/namespaces/inkscape"
   version="1.1"
   id="Layer_1"
   x="0px"
   y="0px"
   viewBox="0 0 30.9 24"
   style="enable-background:new 0 0 30.9 24;"
   xml:space="preserve"
   sodipodi:docname="chat.svg"
   inkscape:version="0.92.1 r15371"><metadata
     id="metadata4638"><rdf:RDF><cc:Work
         rdf:about=""><dc:format>image/svg+xml</dc:format><dc:type
           rdf:resource="http://purl.org/dc/dcmitype/StillImage" /><dc:title></dc:title></cc:Work></rdf:RDF></metadata><defs
     id="defs4636" /><sodipodi:namedview
     pagecolor="#ffffff"
     bordercolor="#666666"
     borderopacity="1"
     objecttolerance="10"
     gridtolerance="10"
     guidetolerance="10"
     inkscape:pageopacity="0"
     inkscape:pageshadow="2"
     inkscape:window-width="1280"
     inkscape:window-height="961"
     id="namedview4634"
     showgrid="false"
     inkscape:zoom="9.8333333"
     inkscape:cx="15.45"
     inkscape:cy="12"
     inkscape:window-x="-8"
     inkscape:window-y="-8"
     inkscape:window-maximized="1"
     inkscape:current-layer="Layer_1" /><path
     d="M28.2,0.5H13.9c-1,0-1.8,1-1.8,2.1v6.8h-10c-0.8,0-1.4,0.7-1.4,1.7v8.2c0,0.9,0.6,1.7,1.4,1.7H10l3.9,2.6L13.8,21h2.5  c0.8,0,1.4-0.7,1.4-1.7v-4.6l2.7-1.7h7.7c1,0,1.8-1,1.8-2.1V2.6C30,1.4,29.2,0.5,28.2,0.5z M12.9,9.3v1.5V9.3z M17,19.3  c0,0.4-0.3,0.7-0.6,0.7H13l0,1.9l-2.9-1.9H2.1c-0.3,0-0.6-0.3-0.6-0.7v-8.2c0-0.4,0.3-0.7,0.6-0.7h10v0.5c0,1.2,0.8,2.1,1.8,2.1h2.1  L16,15.8l1-0.6V19.3z M29.2,10.8c0,0.7-0.5,1.2-1,1.2h-8l-2.7,1.9l-0.7,0.5l0.1-2.3h-3c-0.6,0-1-0.5-1-1.2v-0.5l0,0V9.4V2.6  c0-0.7,0.5-1.2,1-1.2h14.3c0.6,0,1,0.5,1,1.2V10.8z"
     id="path4631"
     style="stroke:#ffffff;fill:#ffffff" /></svg>