<?xml version="1.0" encoding="UTF-8" standalone="no"?>
<!-- Generator: Adobe Illustrator 22.0.1, SVG Export Plug-In . SVG Version: 6.00 Build 0)  -->

<svg
   xmlns:dc="http://purl.org/dc/elements/1.1/"
   xmlns:cc="http://creativecommons.org/ns#"
   xmlns:rdf="http://www.w3.org/1999/02/22-rdf-syntax-ns#"
   xmlns:svg="http://www.w3.org/2000/svg"
   xmlns="http://www.w3.org/2000/svg"
   xmlns:sodipodi="http://sodipodi.sourceforge.net/DTD/sodipodi-0.dtd"
   xmlns:inkscape="http://www.inkscape.org/namespaces/inkscape"
   version="1.1"
   id="Layer_1"
   x="0px"
   y="0px"
   viewBox="0 0 24 24"
   style="enable-background:new 0 0 24 24;"
   xml:space="preserve"
   sodipodi:docname="clock.svg"
   inkscape:version="0.92.1 r15371"><metadata
     id="metadata4629"><rdf:RDF><cc:Work
         rdf:about=""><dc:format>image/svg+xml</dc:format><dc:type
           rdf:resource="http://purl.org/dc/dcmitype/StillImage" /><dc:title></dc:title></cc:Work></rdf:RDF></metadata><defs
     id="defs4627" /><sodipodi:namedview
     pagecolor="#ffffff"
     bordercolor="#666666"
     borderopacity="1"
     objecttolerance="10"
     gridtolerance="10"
     guidetolerance="10"
     inkscape:pageopacity="0"
     inkscape:pageshadow="2"
     inkscape:window-width="1280"
     inkscape:window-height="961"
     id="namedview4625"
     showgrid="false"
     inkscape:zoom="9.8333333"
     inkscape:cx="12"
     inkscape:cy="12"
     inkscape:window-x="-8"
     inkscape:window-y="-8"
     inkscape:window-maximized="1"
     inkscape:current-layer="Layer_1" /><g
     id="g4622"
     style="stroke:#ffffff;fill:#ffffff"><path
       d="M14.9,8.7l-2,2c0,0,0,0-0.1,0V5.2c0-0.3-0.2-0.5-0.5-0.5c-0.3,0-0.5,0.2-0.5,0.5v5.3c-0.6,0.2-1,0.8-1,1.4   c0,0.8,0.7,1.5,1.5,1.5s1.5-0.7,1.5-1.5c0-0.2,0-0.4-0.1-0.6l2-2c0.2-0.2,0.2-0.6,0-0.8C15.4,8.4,15.1,8.4,14.9,8.7z M12.3,12.4   c-0.2,0-0.4-0.2-0.4-0.4c0-0.2,0.2-0.4,0.4-0.4c0.2,0,0.4,0.2,0.4,0.4C12.7,12.2,12.5,12.4,12.3,12.4z"
       id="path4618"
       style="stroke:#ffffff;fill:#ffffff" /><path
       d="M12.3,1c-6.1,0-11,4.9-11,11s4.9,11,11,11s11-4.9,11-11S18.4,1,12.3,1z M12.3,21.9c-5.5,0-9.9-4.4-9.9-9.9   c0-5.5,4.4-9.9,9.9-9.9c5.5,0,9.9,4.4,9.9,9.9C22.2,17.5,17.8,21.9,12.3,21.9z"
       id="path4620"
       style="stroke:#ffffff;fill:#ffffff" /></g></svg>