<?xml version="1.0" encoding="UTF-8" standalone="no"?>
<!-- Generator: Adobe Illustrator 22.0.1, SVG Export Plug-In . SVG Version: 6.00 Build 0)  -->

<svg
   xmlns:dc="http://purl.org/dc/elements/1.1/"
   xmlns:cc="http://creativecommons.org/ns#"
   xmlns:rdf="http://www.w3.org/1999/02/22-rdf-syntax-ns#"
   xmlns:svg="http://www.w3.org/2000/svg"
   xmlns="http://www.w3.org/2000/svg"
   xmlns:sodipodi="http://sodipodi.sourceforge.net/DTD/sodipodi-0.dtd"
   xmlns:inkscape="http://www.inkscape.org/namespaces/inkscape"
   version="1.1"
   id="Layer_1"
   x="0px"
   y="0px"
   viewBox="0 0 24 24"
   style="enable-background:new 0 0 24 24;"
   xml:space="preserve"
   sodipodi:docname="fax.svg"
   inkscape:version="0.92.1 r15371"><metadata
     id="metadata4605"><rdf:RDF><cc:Work
         rdf:about=""><dc:format>image/svg+xml</dc:format><dc:type
           rdf:resource="http://purl.org/dc/dcmitype/StillImage" /><dc:title></dc:title></cc:Work></rdf:RDF></metadata><defs
     id="defs4603" /><sodipodi:namedview
     pagecolor="#ffffff"
     bordercolor="#666666"
     borderopacity="1"
     objecttolerance="10"
     gridtolerance="10"
     guidetolerance="10"
     inkscape:pageopacity="0"
     inkscape:pageshadow="2"
     inkscape:window-width="1280"
     inkscape:window-height="961"
     id="namedview4601"
     showgrid="false"
     inkscape:zoom="31.75"
     inkscape:cx="12"
     inkscape:cy="12"
     inkscape:window-x="-8"
     inkscape:window-y="-8"
     inkscape:window-maximized="1"
     inkscape:current-layer="Layer_1" /><g
     id="g4598"
     style="stroke:#ffffff;fill:#ffffff"><path
       d="M9.6,1h7.8l2.3,2.3v2.9h1V3.1c0-0.1-0.1-0.3-0.2-0.4l-2.6-2.6C17.8,0.1,17.7,0,17.6,0H9C8.7,0,8.5,0.2,8.5,0.5v5.7h1V1z"
       id="path4570"
       style="stroke:#ffffff;fill:#ffffff" /><path
       d="M16.7,1.6v1.1c0,0.7,0.6,1.3,1.3,1.3H19V3h-1.1c-0.1,0-0.2-0.1-0.2-0.2V1.6H16.7z"
       id="path4572"
       style="stroke:#ffffff;fill:#ffffff" /><path
       d="M3.3,7.4C1.5,7.4,0,8.9,0,10.7v10C0,22.5,1.5,24,3.3,24s3.3-1.5,3.3-3.3v-10C6.6,8.9,5.1,7.4,3.3,7.4z M5.6,20.7   c0,1.2-1,2.3-2.3,2.3S1,21.9,1,20.7v-10c0-1.2,1-2.3,2.3-2.3s2.3,1,2.3,2.3V20.7z"
       id="path4574"
       style="stroke:#ffffff;fill:#ffffff" /><path
       d="M22,7.4H6.7v1H22c0.5,0,1,0.4,1,1V22c0,0.5-0.4,1-1,1H6.7v1H22c1.1,0,2-0.9,2-2V9.4C24,8.3,23.1,7.4,22,7.4z"
       id="path4576"
       style="stroke:#ffffff;fill:#ffffff" /><path
       d="M20.3,12.7v-2.6c0-0.3-0.2-0.5-0.5-0.5H9.4c-0.3,0-0.5,0.2-0.5,0.5v2.6c0,0.3,0.2,0.5,0.5,0.5h10.4   C20.1,13.3,20.3,13,20.3,12.7z M19.2,12.2H9.9v-1.5h9.3V12.2z"
       id="path4578"
       style="stroke:#ffffff;fill:#ffffff" /><path
       d="M12,17.4h-1.5c-0.3,0-0.5,0.2-0.5,0.5s0.2,0.5,0.5,0.5H12c0.3,0,0.5-0.2,0.5-0.5S12.3,17.4,12,17.4z"
       id="path4580"
       style="stroke:#ffffff;fill:#ffffff" /><path
       d="M15.3,17.4h-1.5c-0.3,0-0.5,0.2-0.5,0.5s0.2,0.5,0.5,0.5h1.5c0.3,0,0.5-0.2,0.5-0.5S15.6,17.4,15.3,17.4z"
       id="path4582"
       style="stroke:#ffffff;fill:#ffffff" /><path
       d="M18.7,17.4h-1.5c-0.3,0-0.5,0.2-0.5,0.5s0.2,0.5,0.5,0.5h1.5c0.3,0,0.5-0.2,0.5-0.5S19,17.4,18.7,17.4z"
       id="path4584"
       style="stroke:#ffffff;fill:#ffffff" /><path
       d="M12,20.4h-1.5c-0.3,0-0.5,0.2-0.5,0.5s0.2,0.5,0.5,0.5H12c0.3,0,0.5-0.2,0.5-0.5S12.3,20.4,12,20.4z"
       id="path4586"
       style="stroke:#ffffff;fill:#ffffff" /><path
       d="M15.3,20.4h-1.5c-0.3,0-0.5,0.2-0.5,0.5s0.2,0.5,0.5,0.5h1.5c0.3,0,0.5-0.2,0.5-0.5S15.6,20.4,15.3,20.4z"
       id="path4588"
       style="stroke:#ffffff;fill:#ffffff" /><path
       d="M18.7,20.4h-1.5c-0.3,0-0.5,0.2-0.5,0.5s0.2,0.5,0.5,0.5h1.5c0.3,0,0.5-0.2,0.5-0.5S19,20.4,18.7,20.4z"
       id="path4590"
       style="stroke:#ffffff;fill:#ffffff" /><path
       d="M12,14.4h-1.5c-0.3,0-0.5,0.2-0.5,0.5c0,0.3,0.2,0.5,0.5,0.5H12c0.3,0,0.5-0.2,0.5-0.5C12.5,14.7,12.3,14.4,12,14.4z"
       id="path4592"
       style="stroke:#ffffff;fill:#ffffff" /><path
       d="M15.3,14.4h-1.5c-0.3,0-0.5,0.2-0.5,0.5c0,0.3,0.2,0.5,0.5,0.5h1.5c0.3,0,0.5-0.2,0.5-0.5C15.9,14.7,15.6,14.4,15.3,14.4z"
       id="path4594"
       style="stroke:#ffffff;fill:#ffffff" /><path
       d="M18.7,14.4h-1.5c-0.3,0-0.5,0.2-0.5,0.5c0,0.3,0.2,0.5,0.5,0.5h1.5c0.3,0,0.5-0.2,0.5-0.5C19.2,14.7,19,14.4,18.7,14.4z"
       id="path4596"
       style="stroke:#ffffff;fill:#ffffff" /></g></svg>