<?xml version="1.0" encoding="UTF-8" standalone="no"?>
<!-- Generator: Adobe Illustrator 22.0.1, SVG Export Plug-In . SVG Version: 6.00 Build 0)  -->

<svg
   xmlns:dc="http://purl.org/dc/elements/1.1/"
   xmlns:cc="http://creativecommons.org/ns#"
   xmlns:rdf="http://www.w3.org/1999/02/22-rdf-syntax-ns#"
   xmlns:svg="http://www.w3.org/2000/svg"
   xmlns="http://www.w3.org/2000/svg"
   xmlns:sodipodi="http://sodipodi.sourceforge.net/DTD/sodipodi-0.dtd"
   xmlns:inkscape="http://www.inkscape.org/namespaces/inkscape"
   version="1.1"
   id="Layer_1"
   x="0px"
   y="0px"
   viewBox="0 0 24 24"
   style="enable-background:new 0 0 24 24;"
   xml:space="preserve"
   sodipodi:docname="mail.svg"
   inkscape:version="0.92.1 r15371"><metadata
     id="metadata4616"><rdf:RDF><cc:Work
         rdf:about=""><dc:format>image/svg+xml</dc:format><dc:type
           rdf:resource="http://purl.org/dc/dcmitype/StillImage" /><dc:title></dc:title></cc:Work></rdf:RDF></metadata><defs
     id="defs4614" /><sodipodi:namedview
     pagecolor="#ffffff"
     bordercolor="#666666"
     borderopacity="1"
     objecttolerance="10"
     gridtolerance="10"
     guidetolerance="10"
     inkscape:pageopacity="0"
     inkscape:pageshadow="2"
     inkscape:window-width="1280"
     inkscape:window-height="961"
     id="namedview4612"
     showgrid="false"
     inkscape:zoom="9.8333333"
     inkscape:cx="12"
     inkscape:cy="12"
     inkscape:window-x="-8"
     inkscape:window-y="-8"
     inkscape:window-maximized="1"
     inkscape:current-layer="Layer_1" /><g
     id="g4609"
     style="stroke:#ffffff;fill:#ffffff"><path
       d="M21.9,5.2c0.5,0,1,0.2,1.3,0.5c0.4,0.4,0.5,0.8,0.5,1.3v11.1c0,0.5-0.2,1-0.5,1.3S22.4,20,21.9,20H2.1   c-0.5,0-1-0.2-1.3-0.5s-0.5-0.8-0.5-1.3V7c0-0.5,0.2-0.9,0.5-1.3c0.4-0.4,0.8-0.5,1.3-0.5H21.9z M21.9,18.8c0.2,0,0.3-0.1,0.4-0.2   c0.1-0.1,0.2-0.3,0.2-0.4V7.6l-9.1,6.1c-0.2,0.1-0.4,0.2-0.6,0.3C12.5,14,12.2,14,12,14c-0.2,0-0.5,0-0.7-0.1   c-0.2-0.1-0.5-0.2-0.6-0.3L1.5,7.6v10.6c0,0.2,0.1,0.3,0.2,0.4c0.1,0.1,0.3,0.2,0.4,0.2H21.9z M21.9,6.4H2.1c0,0,0,0-0.1,0   c0,0,0,0,0,0l9.3,6.2c0.2,0.1,0.4,0.2,0.7,0.2s0.5-0.1,0.7-0.2L22,6.4C22,6.4,22,6.4,21.9,6.4C21.9,6.4,21.9,6.4,21.9,6.4z"
       id="path4607"
       style="stroke:#ffffff;fill:#ffffff" /></g></svg>