<?xml version="1.0" encoding="UTF-8" standalone="no"?>
<!-- Generator: Adobe Illustrator 22.0.1, SVG Export Plug-In . SVG Version: 6.00 Build 0)  -->

<svg
   xmlns:dc="http://purl.org/dc/elements/1.1/"
   xmlns:cc="http://creativecommons.org/ns#"
   xmlns:rdf="http://www.w3.org/1999/02/22-rdf-syntax-ns#"
   xmlns:svg="http://www.w3.org/2000/svg"
   xmlns="http://www.w3.org/2000/svg"
   xmlns:sodipodi="http://sodipodi.sourceforge.net/DTD/sodipodi-0.dtd"
   xmlns:inkscape="http://www.inkscape.org/namespaces/inkscape"
   version="1.1"
   id="Layer_1"
   x="0px"
   y="0px"
   viewBox="0 0 24 24"
   style="enable-background:new 0 0 24 24;"
   xml:space="preserve"
   sodipodi:docname="map.svg"
   inkscape:version="0.92.1 r15371"><metadata
     id="metadata4530"><rdf:RDF><cc:Work
         rdf:about=""><dc:format>image/svg+xml</dc:format><dc:type
           rdf:resource="http://purl.org/dc/dcmitype/StillImage" /><dc:title></dc:title></cc:Work></rdf:RDF></metadata><defs
     id="defs4528" /><sodipodi:namedview
     pagecolor="#ffffff"
     bordercolor="#666666"
     borderopacity="1"
     objecttolerance="10"
     gridtolerance="10"
     guidetolerance="10"
     inkscape:pageopacity="0"
     inkscape:pageshadow="2"
     inkscape:window-width="1280"
     inkscape:window-height="961"
     id="namedview4526"
     showgrid="false"
     inkscape:zoom="9.8333333"
     inkscape:cx="12"
     inkscape:cy="12"
     inkscape:window-x="-8"
     inkscape:window-y="-8"
     inkscape:window-maximized="1"
     inkscape:current-layer="Layer_1" /><g
     id="g4523"
     style="stroke:#ffffff;fill:#ffffff"><path
       d="M12.3,23.9c-0.1,0-0.1-0.1-0.2-0.2c0,0-0.1-0.2-0.3-0.4c-0.2-0.3-0.5-0.6-0.8-1.1c-0.3-0.5-0.7-1-1.1-1.6   c-0.4-0.6-0.8-1.3-1.2-2.1c-0.2-0.4-0.5-0.9-0.7-1.3c-0.2-0.4-0.4-0.9-0.6-1.3S7.1,15,6.9,14.6c-0.2-0.4-0.3-0.9-0.5-1.3   c-0.2-0.5-0.3-1.1-0.5-1.6c-0.1-0.5-0.2-1-0.3-1.5c-0.1-0.5-0.2-1-0.2-1.5c0-0.5-0.1-0.9-0.1-1.4c0-1,0.2-1.9,0.6-2.8   s0.9-1.6,1.5-2.3s1.4-1.2,2.3-1.5s1.8-0.6,2.8-0.6s1.9,0.2,2.8,0.6s1.6,0.9,2.3,1.5s1.2,1.4,1.5,2.3s0.6,1.8,0.6,2.8   c0,0.5,0,0.9-0.1,1.4c0,0.5-0.1,1-0.2,1.5c-0.1,0.5-0.2,1-0.3,1.5c-0.1,0.5-0.3,1-0.5,1.6c-0.1,0.4-0.3,0.8-0.5,1.3   c-0.2,0.4-0.3,0.9-0.5,1.3s-0.4,0.9-0.6,1.3s-0.4,0.9-0.7,1.3c-0.4,0.8-0.8,1.5-1.2,2.1c-0.4,0.6-0.7,1.2-1.1,1.6s-0.6,0.8-0.8,1.1   c-0.2,0.3-0.3,0.4-0.3,0.4c-0.1,0.1-0.1,0.1-0.2,0.2c-0.1,0-0.2,0.1-0.3,0.1S12.4,24,12.3,23.9z M10.3,1.8C9.5,2.1,8.9,2.6,8.4,3.1   C7.8,3.6,7.4,4.3,7.1,5S6.6,6.5,6.6,7.3c0,1,0.1,1.9,0.3,2.9s0.5,1.9,0.8,2.8c0.3,0.9,0.7,1.8,1,2.6c0.4,0.8,0.8,1.6,1.1,2.3   c0.3,0.5,0.5,1,0.8,1.4c0.3,0.4,0.5,0.9,0.8,1.2s0.5,0.7,0.7,1c0.2,0.3,0.4,0.5,0.5,0.8c0.1-0.2,0.3-0.5,0.5-0.8   c0.2-0.3,0.4-0.6,0.7-1s0.5-0.8,0.8-1.2c0.3-0.4,0.5-0.9,0.8-1.4c0.4-0.7,0.7-1.4,1.1-2.3c0.4-0.8,0.7-1.7,1-2.6   c0.3-0.9,0.6-1.9,0.8-2.8c0.2-1,0.3-1.9,0.3-2.9c0-0.8-0.2-1.6-0.5-2.3c-0.3-0.7-0.7-1.4-1.3-1.9s-1.2-1-1.9-1.3s-1.5-0.5-2.3-0.5   S11,1.5,10.3,1.8z M11.2,10.6c-0.4-0.2-0.8-0.4-1.1-0.8S9.5,9.1,9.3,8.7S9,7.8,9,7.3c0-0.5,0.1-1,0.3-1.4S9.7,5.1,10,4.8   s0.7-0.6,1.1-0.8c0.4-0.2,0.9-0.3,1.4-0.3s1,0.1,1.4,0.3c0.4,0.2,0.8,0.4,1.1,0.8s0.6,0.7,0.8,1.1c0.2,0.4,0.3,0.9,0.3,1.4   c0,0.5-0.1,1-0.3,1.4c-0.2,0.4-0.4,0.8-0.8,1.1s-0.7,0.6-1.1,0.8c-0.4,0.2-0.9,0.3-1.4,0.3S11.6,10.8,11.2,10.6z M11.6,5.1   c-0.3,0.1-0.5,0.3-0.8,0.5c-0.2,0.2-0.4,0.5-0.5,0.8S10.2,7,10.2,7.3c0,0.3,0.1,0.6,0.2,0.9c0.1,0.3,0.3,0.5,0.5,0.8   c0.2,0.2,0.5,0.4,0.8,0.5c0.3,0.1,0.6,0.2,0.9,0.2s0.6-0.1,0.9-0.2C13.8,9.4,14,9.2,14.3,9c0.2-0.2,0.4-0.5,0.5-0.8   C14.9,8,15,7.6,15,7.3c0-0.3-0.1-0.6-0.2-0.9s-0.3-0.5-0.5-0.8s-0.5-0.4-0.8-0.5c-0.3-0.1-0.6-0.2-0.9-0.2S11.9,5,11.6,5.1z"
       id="path4521"
       style="stroke:#ffffff;fill:#ffffff" /></g></svg>