<?xml version="1.0" encoding="UTF-8" standalone="no"?>
<svg
   xmlns:dc="http://purl.org/dc/elements/1.1/"
   xmlns:cc="http://creativecommons.org/ns#"
   xmlns:rdf="http://www.w3.org/1999/02/22-rdf-syntax-ns#"
   xmlns:svg="http://www.w3.org/2000/svg"
   xmlns="http://www.w3.org/2000/svg"
   xml:space="preserve"
   style="enable-background:new 0 0 24 24;"
   viewBox="0 0 24 24"
   y="0px"
   x="0px"
   id="Layer_1"
   version="1.1"><metadata
     id="metadata4677"><rdf:RDF><cc:Work
         rdf:about=""><dc:format>image/svg+xml</dc:format><dc:type
           rdf:resource="http://purl.org/dc/dcmitype/StillImage" /><dc:title></dc:title></cc:Work></rdf:RDF></metadata><defs
     id="defs4675" /><g
     style="stroke:#ffffff;fill:#ffffff"
     id="g4670"><path
       style="stroke:#ffffff;fill:#ffffff"
       id="path4668"
       d="M5.5,23.1c-0.3,0-0.6-0.1-0.9-0.2s-0.6-0.3-0.9-0.5C3.4,22.2,3.2,22,3,21.8c-0.2-0.2-0.4-0.4-0.5-0.5   C2.3,21.2,2.1,21,2,20.7c-0.2-0.2-0.3-0.5-0.5-0.7c-0.1-0.2-0.3-0.5-0.3-0.7C1,19,1,18.8,1,18.6c0-0.2,0.1-0.4,0.2-0.7   c0.1-0.3,0.4-0.5,0.6-0.9c0.2-0.2,0.5-0.5,0.8-0.8c0.3-0.3,0.6-0.5,1-0.8c0.1-0.1,0.3-0.2,0.6-0.4s0.6-0.4,1-0.6   c0.4-0.2,0.7-0.4,1.1-0.6c0.4-0.2,0.7-0.3,0.9-0.3c0.4,0,0.8,0.2,1.1,0.6c0.3,0.4,0.6,0.8,0.9,1.3c0.1,0.2,0.2,0.4,0.4,0.6   c0.1,0.2,0.2,0.4,0.4,0.5c0.1,0.2,0.2,0.3,0.3,0.3c0.1,0,0.1,0.1,0.1,0.1c0.7-0.3,1.3-0.7,2-1.2c0.7-0.5,1.4-1.1,2-1.7   c0.6-0.6,1.2-1.3,1.7-2c0.5-0.7,0.9-1.4,1.2-2c0,0,0-0.1-0.1-0.1c0-0.1-0.1-0.2-0.3-0.3c-0.1-0.1-0.3-0.2-0.5-0.4S16,9,15.8,8.9   c-0.5-0.3-0.9-0.6-1.3-0.9c-0.4-0.3-0.6-0.7-0.6-1.1c0-0.3,0.1-0.6,0.3-0.9c0.2-0.4,0.4-0.7,0.6-1.1s0.4-0.7,0.6-1s0.4-0.5,0.4-0.6   c0.3-0.3,0.5-0.7,0.8-1s0.5-0.5,0.7-0.8c0.3-0.3,0.6-0.5,0.9-0.7c0.3-0.1,0.5-0.2,0.7-0.2c0.2,0,0.4,0,0.7,0.1   C19.8,1,20,1.1,20.2,1.2c0.2,0.1,0.5,0.3,0.7,0.5s0.4,0.3,0.6,0.5c0.1,0.1,0.3,0.3,0.5,0.5c0.2,0.2,0.4,0.4,0.6,0.7   C22.8,3.7,23,4,23.1,4.3c0.1,0.3,0.2,0.6,0.2,0.9c0,0.5,0,1-0.1,1.5s-0.2,1-0.3,1.5s-0.3,1.1-0.5,1.6c-0.2,0.5-0.4,1.1-0.7,1.6   c-0.3,0.5-0.5,1-0.8,1.5c-0.3,0.5-0.6,1-1,1.5c-0.4,0.5-0.7,1-1.1,1.4c-0.4,0.5-0.8,0.9-1.2,1.4c-0.4,0.4-0.9,0.8-1.4,1.2   c-0.5,0.4-0.9,0.8-1.4,1.1c-0.5,0.4-1,0.7-1.5,1c-0.5,0.3-1,0.6-1.5,0.8c-0.5,0.3-1.1,0.5-1.6,0.7c-0.5,0.2-1.1,0.4-1.6,0.5   s-1,0.2-1.5,0.3S6,23.1,5.5,23.1z M18.8,1.9c-0.1,0-0.4,0.2-0.8,0.5c-0.4,0.3-0.9,0.9-1.5,1.7c-0.3,0.3-0.5,0.7-0.7,1   c-0.2,0.3-0.4,0.6-0.5,0.8S15.1,6.3,15,6.5c-0.1,0.2-0.1,0.3-0.1,0.4c0,0,0,0,0.1,0.1s0.1,0.2,0.3,0.3c0.1,0.1,0.3,0.2,0.5,0.3   C16,7.7,16.2,7.9,16.3,8c0.2,0.2,0.5,0.3,0.7,0.5c0.2,0.2,0.5,0.3,0.6,0.5c0.3,0.3,0.5,0.6,0.6,0.9c0,0.3,0,0.5,0,0.7   c-0.3,0.7-0.7,1.5-1.3,2.2c-0.5,0.8-1.2,1.5-1.9,2.2c-0.7,0.7-1.4,1.3-2.2,1.9c-0.8,0.6-1.5,1-2.3,1.3c-0.1,0-0.1,0-0.2,0.1   c-0.1,0-0.1,0-0.2,0c-0.4,0-0.8-0.2-1.1-0.6c-0.3-0.4-0.6-0.9-0.9-1.4c-0.1-0.2-0.2-0.4-0.3-0.6c-0.1-0.2-0.2-0.3-0.3-0.5   c-0.1-0.2-0.2-0.3-0.3-0.3s-0.1-0.1-0.1-0.1c-0.1,0-0.2,0-0.4,0.1c-0.2,0.1-0.4,0.2-0.6,0.3c-0.2,0.1-0.5,0.3-0.8,0.5   c-0.3,0.2-0.6,0.4-1,0.7C3.5,17,3,17.5,2.6,17.9c-0.3,0.4-0.5,0.6-0.5,0.7c0,0.2,0.1,0.4,0.3,0.8c0.2,0.4,0.5,0.8,0.9,1.2   c0.4,0.4,0.8,0.7,1.1,1c0.4,0.2,0.7,0.4,1,0.4c1.9,0,3.8-0.5,5.8-1.6s3.8-2.4,5.4-4c1.6-1.6,2.9-3.4,4-5.4s1.6-3.9,1.6-5.8   c0-0.3-0.1-0.6-0.4-1c-0.2-0.4-0.6-0.8-1-1.2c-0.4-0.4-0.8-0.7-1.2-0.9S19,1.9,18.8,1.9z" /></g></svg>