<?xml version="1.0" encoding="utf-8"?>
<!-- Generator: Adobe Illustrator 22.0.1, SVG Export Plug-In . SVG Version: 6.00 Build 0)  -->
<svg version="1.1" id="Layer_1" xmlns="http://www.w3.org/2000/svg" xmlns:xlink="http://www.w3.org/1999/xlink" x="0px" y="0px"
	 viewBox="0 0 21 21" style="enable-background:new 0 0 21 21;" xml:space="preserve">
<path d="M12.8,11.9c1-1.2,1.5-2.7,1.5-4.3c0-1.8-0.7-3.5-2-4.7C9.8,0.3,5.6,0.3,3,2.9C1.7,4.2,1,5.9,1,7.7c0,1.8,0.7,3.5,2,4.7
	c1.3,1.3,2.9,2,4.7,2c1.6,0,3.1-0.5,4.3-1.5l7,7.1c0.1,0.1,0.3,0.2,0.4,0.2c0.2,0,0.3-0.1,0.4-0.2c0.2-0.2,0.2-0.6,0-0.9L12.8,11.9z
	 M3.8,11.5c-2.1-2.1-2.1-5.6,0-7.7c1.1-1.1,2.5-1.6,3.9-1.6c1.4,0,2.8,0.5,3.9,1.6c1,1,1.6,2.4,1.6,3.9c0,1.5-0.6,2.8-1.6,3.9
	c-1,1-2.4,1.6-3.9,1.6S4.8,12.6,3.8,11.5z"/>
</svg>
