<?xml version="1.0" encoding="UTF-8" standalone="no"?>
<!-- Generator: Adobe Illustrator 22.0.1, SVG Export Plug-In . SVG Version: 6.00 Build 0)  -->

<svg
   xmlns:dc="http://purl.org/dc/elements/1.1/"
   xmlns:cc="http://creativecommons.org/ns#"
   xmlns:rdf="http://www.w3.org/1999/02/22-rdf-syntax-ns#"
   xmlns:svg="http://www.w3.org/2000/svg"
   xmlns="http://www.w3.org/2000/svg"
   xmlns:sodipodi="http://sodipodi.sourceforge.net/DTD/sodipodi-0.dtd"
   xmlns:inkscape="http://www.inkscape.org/namespaces/inkscape"
   version="1.1"
   id="Layer_1"
   x="0px"
   y="0px"
   viewBox="0 0 24 24"
   style="enable-background:new 0 0 24 24;"
   xml:space="preserve"
   sodipodi:docname="waze.svg"
   inkscape:version="0.92.1 r15371"><metadata
     id="metadata4547"><rdf:RDF><cc:Work
         rdf:about=""><dc:format>image/svg+xml</dc:format><dc:type
           rdf:resource="http://purl.org/dc/dcmitype/StillImage" /><dc:title></dc:title></cc:Work></rdf:RDF></metadata><defs
     id="defs4545" /><sodipodi:namedview
     pagecolor="#ffffff"
     bordercolor="#666666"
     borderopacity="1"
     objecttolerance="10"
     gridtolerance="10"
     guidetolerance="10"
     inkscape:pageopacity="0"
     inkscape:pageshadow="2"
     inkscape:window-width="1280"
     inkscape:window-height="961"
     id="namedview4543"
     showgrid="false"
     inkscape:zoom="9.8333333"
     inkscape:cx="12"
     inkscape:cy="12"
     inkscape:window-x="-8"
     inkscape:window-y="-8"
     inkscape:window-maximized="1"
     inkscape:current-layer="Layer_1" /><g
     id="g4540"
     style="stroke:#ffffff;fill:#ffffff"><path
       d="M23.6,9c-0.2-1.3-0.8-2.6-1.6-3.7c-0.9-1.3-2.2-2.4-3.7-3.1C16.8,1.4,15.2,1,13.5,1c-0.5,0-0.9,0-1.4,0.1   c-1.9,0.3-3.8,1.1-5.4,2.3C5,4.7,3.9,6.5,3.5,8.4C3.4,9,3.4,9.6,3.3,10.2c-0.1,1-0.1,2-0.5,2.6c-0.2,0.4-0.5,0.7-1.4,0.7   c-0.5,0-0.9,0.3-1.1,0.7c-0.2,0.4-0.2,0.9,0.1,1.3c1.4,1.9,3.3,2.9,5.2,3.5c-0.4,0.4-0.7,1-0.7,1.7c0,1.3,1.1,2.4,2.4,2.4   c1.3,0,2.4-1.1,2.4-2.4c0-0.4-0.1-0.7-0.2-1c0.7,0,1.3,0.1,1.9,0.1c0.1,0,0.2,0,0.2,0c0.1,0,0.1,0,0.2,0c0.1,0,0.2,0,0.3,0   c0.1,0,0.2,0,0.3,0c0.4,0,0.7,0,1.1,0c-0.1,0.3-0.2,0.6-0.2,1c0,1.3,1.1,2.4,2.4,2.4c1.3,0,2.4-1.1,2.4-2.4c0-0.7-0.3-1.3-0.7-1.7   c1.2-0.5,2.3-1.2,3.2-2.1c1.1-1.1,1.9-2.3,2.3-3.6C23.7,11.9,23.8,10.4,23.6,9z M7.5,21.6c-0.4,0-0.8-0.4-0.8-0.8   c0-0.4,0.4-0.8,0.8-0.8c0.4,0,0.8,0.4,0.8,0.8C8.3,21.2,8,21.6,7.5,21.6z M16,21.6c-0.4,0-0.8-0.4-0.8-0.8c0-0.4,0.4-0.8,0.8-0.8   c0.4,0,0.8,0.4,0.8,0.8C16.8,21.2,16.4,21.6,16,21.6z M22.1,13c-0.8,2.3-2.9,4.2-5.1,5c-0.4,0.1-0.8,0.3-1.2,0.3   c-0.1,0-0.3,0-0.4,0.1c-1,0.1-1.9,0.2-2.7,0.2c-0.2,0-0.4,0-0.6,0c-0.1,0-0.1,0-0.2,0c-0.1,0-0.2,0-0.2,0c-3.2,0-7.6-0.4-10.1-3.8   c3.5,0,2.8-3.9,3.2-6.2c0.7-3.5,4.2-5.9,7.5-6.3c0.4-0.1,0.8-0.1,1.2-0.1C19,2.2,24,7.2,22.1,13z"
       id="path4532"
       style="stroke:#ffffff;fill:#ffffff" /><path
       d="M10.8,9.5c0.7,0,1.2-0.5,1.2-1.2c0-0.7-0.5-1.2-1.2-1.2c-0.7,0-1.2,0.5-1.2,1.2C9.6,9,10.1,9.5,10.8,9.5z"
       id="path4534"
       style="stroke:#ffffff;fill:#ffffff" /><path
       d="M16.3,9.5c0.7,0,1.2-0.5,1.2-1.2c0-0.7-0.5-1.2-1.2-1.2c-0.7,0-1.2,0.5-1.2,1.2C15.1,9,15.6,9.5,16.3,9.5z"
       id="path4536"
       style="stroke:#ffffff;fill:#ffffff" /><path
       d="M17.3,11c-0.3-0.1-0.7,0.1-0.7,0.5c-0.2,1-1.3,2-3,2c-1.6,0-2.8-1-3-2c-0.1-0.3-0.4-0.6-0.7-0.5c-0.3,0.1-0.6,0.4-0.5,0.7   c0.3,1.7,2.1,3,4.1,3c0,0,0.1,0,0.1,0c1,0,2-0.3,2.7-0.9c0.7-0.5,1.2-1.3,1.4-2.1C17.8,11.4,17.6,11.1,17.3,11z"
       id="path4538"
       style="stroke:#ffffff;fill:#ffffff" /></g></svg>